<svg width="290" height="290" viewBox="0 0 290 290" fill="none" xmlns="http://www.w3.org/2000/svg" xmlns:xlink="http://www.w3.org/1999/xlink">
<style>
  .rotate {
    animation: rotate 10s linear infinite;
    transform-origin:50% 50% ;
  }
  @keyframes rotate {
    to {
      transform: rotate(1turn);
    }
  }
</style>
<g class="rotate" >
  <path d="M112.347 23.056C110.244 23.475 108.218 22.1493 107.793 20.0152C107.38 17.9439 108.762 15.874 110.834 15.4613C112.905 15.0486 114.975 16.4308 115.387 18.5021C115.825 20.699 114.355 22.6559 112.347 23.056ZM112.115 21.8949C113.716 21.576 114.501 20.1143 114.226 18.7335C113.945 17.3212 112.477 16.3411 111.065 16.6225C109.621 16.9101 108.673 18.3716 108.954 19.7839C109.248 21.2589 110.609 22.195 112.115 21.8949Z" fill="#E4E4E4"/>
  <path d="M86.7085 25.2985L89.4968 29.7445L86.7857 31.4447L93.2122 41.6923L88.6306 44.5655L74.1115 21.4135L78.6931 18.5403L83.9975 26.9986L86.7085 25.2985ZM73.6378 46.6778L78.2736 43.7706C80.4696 42.3935 82.6172 40.5178 83.6189 38.9831L86.1861 43.0767C85.2184 44.6657 82.7725 46.7283 80.5495 48.1224L71.5761 53.7499L58.0771 32.2244L71.5508 23.7748L74.152 27.9227L65.3412 33.4481L73.6378 46.6778Z" fill="#E4E4E4"/>
  <path d="M46.1861 41.7619L66.6595 59.8632L63.0774 63.9147L42.604 45.8134L46.1861 41.7619ZM33.5314 56.7996L48.9944 70.471L52.7885 66.1797C54.5053 64.2378 55.987 61.789 56.4898 60.0125L60.1818 63.2767C59.7029 65.0744 58.2185 67.478 56.4804 69.4439L48.9983 77.9065L29.8433 60.971L33.5314 56.7996Z" fill="#E4E4E4"/>
  <path d="M18.7736 78.7028L21.0638 73.8036L33.877 79.7934L31.5868 84.6925L18.7736 78.7028ZM23.8251 84.5965C27.7096 86.4124 28.6849 90.8246 26.4354 95.6368C24.1858 100.449 20.175 102.53 16.2905 100.714C12.435 98.9121 11.4307 94.4863 13.6802 89.6742C15.9297 84.862 19.9695 82.7942 23.8251 84.5965ZM18.5671 95.8442C20.0456 96.5354 21.5849 95.736 22.4929 93.7938C23.4008 91.8515 23.0269 90.1578 21.5484 89.4667C20.07 88.7756 18.5307 89.5749 17.6227 91.5171C16.7148 93.4594 17.0887 95.1531 18.5671 95.8442ZM34.1205 85.7709L32.4971 85.0121L34.7466 80.1999L45.8204 85.3765L35.6027 107.234L24.5289 102.058L26.7784 97.2454L28.4018 98.0043L34.1205 85.7709ZM33.9677 100.606L39.6864 88.3728L37.918 87.5462L32.1993 99.7795L33.9677 100.606Z" fill="#E4E4E4"/>
  <path d="M4.68645 134.556L8.80927 134.763L7.91986 152.501L3.79704 152.294L4.12716 145.71L1.92193 145.6L2.19757 140.102L4.4028 140.213L4.68645 134.556ZM3.1401 130.89L3.40612 125.585L20.7284 126.453L20.4623 131.759L17.9375 131.632L17.8045 134.285L13.2982 134.059L13.4312 131.406L11.5455 131.312L11.4125 133.964L6.90619 133.738L7.0392 131.086L3.1401 130.89ZM19.8566 143.839C19.6306 148.346 17.5911 151.96 14.0435 151.782C10.5279 151.606 8.82819 147.804 9.05415 143.298C9.28011 138.791 11.3516 135.179 14.8672 135.355C18.4148 135.533 20.0825 139.333 19.8566 143.839ZM12.8893 143.49C12.7916 145.44 13.3731 146.622 14.2999 146.669C15.2268 146.715 15.9236 145.597 16.0214 143.647C16.1192 141.698 15.5376 140.515 14.6108 140.469C13.684 140.422 12.9871 141.541 12.8893 143.49ZM24.9627 151.272L20.4564 151.047L21.6872 126.501L31.0194 126.969L30.7438 132.466L25.9179 132.224L24.9627 151.272Z" fill="#E4E4E4"/>
  <path d="M3.76374 166.427L23.4243 161.687L24.6919 166.944L5.03134 171.684L3.76374 166.427ZM7.90517 183.467C6.65257 178.272 8.97058 173.96 13.7613 172.805C18.5831 171.643 22.5801 174.432 23.8327 179.627C25.0853 184.822 22.7984 189.126 17.9766 190.288C13.1859 191.443 9.15777 188.662 7.90517 183.467ZM12.2915 182.409C12.779 184.431 14.4145 185.617 16.7165 185.062C19.0186 184.507 19.934 182.706 19.4464 180.684C18.9589 178.662 17.3234 177.476 15.0214 178.032C12.7194 178.587 11.8039 180.387 12.2915 182.409ZM25.3943 180.369L29.9673 179.267L25.5119 160.788L30.2404 159.648L35.9859 183.477L26.6844 185.72L25.3943 180.369Z" fill="#E4E4E4"/>
  <path d="M35.3221 213.261C38.6621 213.735 41.8017 215.655 43.8401 219.06L39.6547 221.475C37.9052 218.827 34.7742 218.01 31.8009 218.876L34.5994 223.727L30.3863 226.157L27.5398 221.224L25.1561 222.599L22.4056 217.831L24.7893 216.456L21.9428 211.522L26.1559 209.092L29.0184 214.053C29.5493 213.821 30.0845 213.66 30.6356 213.527L31.0001 204.745L35.8646 205.301L35.3221 213.261ZM18.2968 210.005L15.5943 205.321L39.2652 191.664L41.9678 196.349L18.2968 210.005ZM41.0564 207.256L40.8805 206.951C39.6172 204.761 37.9168 202.454 36.404 201.369L40.7003 198.89C42.213 199.976 43.8655 202.199 45.2247 204.555L51.3974 215.254L47.1012 217.733L43.743 211.912L40.2228 213.943L37.5363 209.287L41.0564 207.256Z" fill="#E4E4E4"/>
  <path d="M71.2742 247.208C72.9358 248.563 73.2033 250.969 71.8283 252.656C70.4936 254.293 68.0174 254.545 66.3805 253.21C64.7437 251.875 64.4918 249.399 65.8264 247.762C67.242 246.026 69.6869 245.914 71.2742 247.208ZM70.526 248.126C69.2611 247.094 67.6338 247.419 66.7441 248.51C65.8341 249.626 66.0127 251.382 67.1287 252.292C68.2696 253.223 70.0007 253.024 70.9106 251.908C71.861 250.742 71.7164 249.096 70.526 248.126Z" fill="#E4E4E4"/>
  <path d="M108.013 254.166L98.284 278.364L88.991 274.628C82.6966 272.097 80.4236 267.113 82.5723 261.769C84.7449 256.365 89.835 254.342 96.1293 256.873L100.019 258.437L102.609 251.994L108.013 254.166ZM98.0969 263.217L94.445 261.749C91.4463 260.543 89.0622 261.24 87.9759 263.942C86.9016 266.614 88.1516 268.737 91.1503 269.943L94.8022 271.411L98.0969 263.217Z" fill="#E4E4E4"/>
  <path d="M109.987 281.71L104.362 280.201L111.119 255.012L116.744 256.521L109.987 281.71Z" fill="#E4E4E4"/>
  <path d="M136.531 259.928L135.994 263.73L120.765 278.903L132.965 280.624L132.258 285.631L112.233 282.805L112.769 279.003L127.998 263.83L114.531 261.93L115.238 256.923L136.531 259.928Z" fill="#E4E4E4"/>
  <path d="M146.111 286.714C140.704 286.833 136.892 283.747 136.789 279.077C136.723 276.069 138.883 273.813 141.05 273.382C138.642 273.051 135.909 271.03 135.835 267.671C135.725 262.648 139.911 259.419 145.318 259.301C151.045 259.175 154.666 262.297 155.192 267.311L149.465 267.436C149.196 265.361 147.857 264.142 145.425 264.196C143.026 264.248 141.455 265.595 141.497 267.515C141.545 269.69 143.394 270.802 146.113 270.742L148.704 270.685L148.808 275.42L146.217 275.477C143.849 275.529 142.47 276.84 142.513 278.823C142.555 280.743 143.861 281.898 146.036 281.851C148.308 281.801 149.324 279.954 149.283 278.099L155.01 277.973C155.118 282.932 151.454 286.597 146.111 286.714Z" fill="#E4E4E4"/>
  <path d="M191.723 261.628C193.758 260.952 195.932 262.016 196.619 264.081C197.285 266.086 196.169 268.311 194.165 268.977C192.161 269.643 189.936 268.527 189.27 266.523C188.563 264.397 189.78 262.274 191.723 261.628ZM192.097 262.751C190.548 263.266 189.949 264.814 190.393 266.15C190.847 267.516 192.425 268.307 193.792 267.853C195.189 267.389 195.949 265.821 195.495 264.455C195.021 263.027 193.554 262.267 192.097 262.751Z" fill="#E4E4E4"/>
  <path d="M214.748 243.229L210.607 246.607L207.472 242.763L228.896 225.287L232.031 229.13L227.89 232.508L231.632 237.095C234.711 236.566 237.423 237.41 239.223 239.617C242.48 243.609 240.782 249.578 234.831 254.432C228.88 259.287 222.692 259.751 219.436 255.759C217.635 253.552 217.354 250.726 218.49 247.816L214.748 243.229ZM231.757 250.663C234.955 248.054 236.261 245.048 234.784 243.238C233.328 241.452 230.101 242.103 226.902 244.712C223.703 247.322 222.418 250.353 223.874 252.138C225.351 253.948 228.558 253.273 231.757 250.663ZM226.349 239.175L223.7 235.927L218.939 239.81L221.589 243.059C222.252 242.353 223.005 241.656 223.848 240.968C224.691 240.28 225.525 239.683 226.349 239.175Z" fill="#E4E4E4"/>
  <path d="M258.111 230.409L255.058 234.873L243.383 226.889L246.436 222.425L258.111 230.409ZM256.014 215.562C255.296 212.473 255.731 208.777 257.855 205.5L261.738 208.156C259.909 211.17 260.493 214.399 262.033 216.227L265.483 211.182L269.155 213.693L259.184 228.274L255.512 225.763L258.926 220.771C258.566 220.447 258.242 220.07 257.892 219.675L250.683 223.584L248.754 219.319L256.014 215.562ZM244.11 220.95L245.589 221.962L242.591 226.347L232.501 219.446L246.302 199.266L256.392 206.167L253.393 210.551L251.914 209.54L244.11 220.95ZM246.842 206.071L239.039 217.482L240.65 218.584L248.454 207.173L246.842 206.071Z" fill="#E4E4E4"/>
  <path d="M268.679 166.601C269.181 164.517 271.234 163.234 273.35 163.743C275.403 164.238 276.702 166.361 276.207 168.414C275.713 170.468 273.59 171.767 271.536 171.272C269.359 170.747 268.199 168.592 268.679 166.601ZM269.83 166.878C269.448 168.465 270.445 169.791 271.814 170.121C273.214 170.458 274.719 169.537 275.056 168.137C275.401 166.706 274.472 165.232 273.073 164.894C271.61 164.542 270.19 165.385 269.83 166.878Z" fill="#E4E4E4"/>
  <path d="M286.339 133.568L287.012 138.837L270.983 140.886L270.309 135.617L275.991 134.89L274.944 126.701L278.849 126.202L279.895 134.391L281.133 134.233L280.087 126.044L283.991 125.545L285.038 133.734L286.339 133.568ZM270.988 132.852C270.365 131.512 269.787 129.005 269.462 126.466L268.03 115.261L283.584 113.273L284.274 118.67L272.72 120.146L273.49 126.177C273.803 128.621 274.297 130.978 274.924 132.349L270.988 132.852ZM256.806 118.051L266.931 116.757L270.031 141.007L259.905 142.302L256.806 118.051ZM263.581 122.604L261.518 122.868L263.255 136.454L265.318 136.19L263.581 122.604Z" fill="#E4E4E4"/>
  <path d="M277.286 93.7459L279.46 98.6975L266.51 104.385L264.336 99.4332L277.286 93.7459ZM263.575 87.6745C260.574 86.6508 257.667 84.3278 256.009 80.7919L260.316 78.9004C261.907 82.0461 264.956 83.2585 267.323 82.9181L264.865 77.3219L268.938 75.5334L276.041 91.7065L271.968 93.495L269.536 87.9575C269.071 88.0919 268.58 88.1677 268.06 88.2564L267.565 96.442L262.925 95.8237L263.575 87.6745ZM261.854 100.628L263.495 99.9072L265.631 104.771L254.439 109.686L244.608 87.3016L255.801 82.3863L257.937 87.25L256.296 87.9705L261.854 100.628ZM250.67 90.441L256.229 103.098L258.016 102.313L252.458 89.6561L250.67 90.441Z" fill="#E4E4E4"/>
  <path d="M228.716 51.0362C227.212 49.5079 227.209 47.0867 228.761 45.5605C230.266 44.0793 232.755 44.0995 234.236 45.605C235.717 47.1105 235.697 49.5994 234.192 51.0806C232.595 52.6516 230.152 52.496 228.716 51.0362ZM229.56 50.2058C230.705 51.3691 232.358 51.2241 233.361 50.2366C234.388 49.2267 234.402 47.4618 233.392 46.4354C232.36 45.3861 230.617 45.3946 229.591 46.4045C228.519 47.4593 228.483 49.1109 229.56 50.2058Z" fill="#E4E4E4"/>
  <path d="M209.49 30.1673L199.238 22.5076C195.824 22.737 191.566 21.7346 187.409 19.8983L189.157 16.088C192.645 17.6174 196.715 18.5689 198.843 17.9961L190.408 14.1272L192.129 10.3751L214.409 20.5944L212.688 24.3465L204.34 20.5176C204.189 20.6945 204.022 20.829 203.841 20.9926L212.218 26.9827L209.49 30.1673ZM209.271 35.5586L199.149 30.9159L198.615 32.0793C203.833 34.8249 206.742 37.8487 205.314 40.9609C203.673 44.5386 198.432 43.6838 191.742 40.6153C185.053 37.5469 180.986 34.1325 182.627 30.5549C184.054 27.4426 188.243 27.6741 193.728 29.838L194.262 28.6745L184.14 24.0318L185.874 20.2506L211.005 31.7773L209.271 35.5586ZM200.078 38.5595C200.479 37.6869 198.124 36.2197 194.517 34.5654C190.911 32.9111 188.262 32.0837 187.862 32.9563C187.449 33.8579 189.817 35.2961 193.423 36.9504C197.03 38.6047 199.665 39.4612 200.078 38.5595Z" fill="#E4E4E4"/>
  <path d="M171.431 5.20691L176.783 5.97949L174.763 19.9784L169.41 19.2058L171.431 5.20691ZM159.028 13.6335C156.572 15.6392 153.063 16.8787 149.185 16.416L149.857 11.7602C153.369 12.073 156.01 10.1264 156.972 7.93744L150.923 7.0643L151.558 2.66192L169.041 5.18535L168.406 9.58773L162.42 8.72373C162.288 9.18966 162.093 9.64645 161.893 10.1349L168.579 14.8828L165.601 18.4943L159.028 13.6335ZM169.112 21.9433L169.368 20.1697L174.626 20.9286L172.879 33.0272L148.682 29.5346L150.428 17.436L155.686 18.1949L155.43 19.9685L169.112 21.9433ZM154.552 26.0495L168.234 28.0243L168.513 26.0923L154.831 24.1175L154.552 26.0495Z" fill="#E4E4E4"/>
</g>
</svg>
